<?xml version="1.0" encoding="UTF-8" standalone="no"?>
<!-- Generator: Adobe Illustrator 12.0.0, SVG Export Plug-In . SVG Version: 6.00 Build 51448)  -->

<svg
   xmlns:dc="http://purl.org/dc/elements/1.1/"
   xmlns:cc="http://creativecommons.org/ns#"
   xmlns:rdf="http://www.w3.org/1999/02/22-rdf-syntax-ns#"
   xmlns:svg="http://www.w3.org/2000/svg"
   xmlns="http://www.w3.org/2000/svg"
   xmlns:sodipodi="http://sodipodi.sourceforge.net/DTD/sodipodi-0.dtd"
   xmlns:inkscape="http://www.inkscape.org/namespaces/inkscape"
   version="1.1"
   id="Layer_1"
   width="500"
   height="550"
   viewBox="0 0 500.00001 549.99998"
   overflow="visible"
   enable-background="new 0 0 499.524 554.546"
   xml:space="preserve"
   inkscape:version="0.91pre2 r13516"
   sodipodi:docname="osx.svg"
   style="overflow:visible"><metadata
   id="metadata25"><rdf:RDF><cc:Work
       rdf:about=""><dc:format>image/svg+xml</dc:format><dc:type
         rdf:resource="http://purl.org/dc/dcmitype/StillImage" /><dc:title></dc:title></cc:Work></rdf:RDF></metadata><defs
   id="defs23">
	
		
	
		
	
		
	
		
	
		
	
		
	
	
		
</defs><sodipodi:namedview
   pagecolor="#ffffff"
   bordercolor="#666666"
   borderopacity="1"
   objecttolerance="10"
   gridtolerance="10"
   guidetolerance="10"
   inkscape:pageopacity="0"
   inkscape:pageshadow="2"
   inkscape:window-width="1920"
   inkscape:window-height="1058"
   id="namedview21"
   showgrid="false"
   showguides="true"
   inkscape:guide-bbox="true"
   inkscape:zoom="1"
   inkscape:cx="100.19707"
   inkscape:cy="199.29363"
   inkscape:window-x="-8"
   inkscape:window-y="-8"
   inkscape:window-maximized="1"
   inkscape:current-layer="Layer_1" />
<path
   style="clip-rule:evenodd;fill:#61bb46;fill-rule:evenodd;stroke:#61bb46;stroke-width:2.36865973;stroke-miterlimit:2.61310005"
   inkscape:connector-curvature="0"
   id="path5"
   d="m 70.390936,160.59246 c 0.131454,-0.2171 0.270826,-0.43101 0.4102,-0.64093 22.526923,-34.82929 58.061454,-55.21442 91.477664,-55.21442 34.02676,0 55.41653,18.7311 83.54291,18.7311 27.29095,0 43.91353,-18.75815 83.25308,-18.75815 29.72284,0 61.23615,16.25325 83.6823,44.35746 -6.20605,3.41303 -11.80472,7.28807 -16.80868,11.5472 l -325.557474,-0.0222 0,0 z"
   stroke-miterlimit="2.6131" /><path
   style="clip-rule:evenodd;fill:#61bb46;fill-rule:evenodd;stroke:#61bb46;stroke-width:2.36865973;stroke-miterlimit:2.61310005"
   inkscape:connector-curvature="0"
   id="path7"
   d="m 299.23477,73.328802 c 14.27937,-18.416197 25.14095,-44.419473 21.20446,-71.005634 -23.34653,1.607114 -50.65331,16.533153 -66.60279,35.963244 -14.4726,17.651214 -26.42065,43.829429 -21.76907,69.258568 25.48859,0.796 51.85539,-14.48708 67.1674,-34.216178 l 0,0 z"
   stroke-miterlimit="2.6131" /><path
   sodipodi:nodetypes="ccccccc"
   inkscape:connector-curvature="0"
   style="clip-rule:evenodd;fill:#fdb827;fill-rule:evenodd;stroke:none;stroke-miterlimit:2.61310005"
   id="path9"
   d="m 69.228871,160.07923 c -9.70116,15.26232 -16.413614,37.13761 -18.194918,56.32485 l 314.726797,-0.009 c 3.40288,-20.99151 14.71779,-41.04647 32.65203,-56.29354 l -329.183909,-0.0232 0.01857,0 z"
   stroke-miterlimit="2.6131" /><path
   style="clip-rule:evenodd;fill:#f5821f;fill-rule:evenodd;stroke:#f5821f;stroke-width:2.36865973;stroke-miterlimit:2.61310005"
   inkscape:connector-curvature="0"
   id="path11"
   d="M 53.891887,272.22841 C 50.833605,252.63132 50.338673,233.738 52.2598,216.40486 l 312.27509,-0.009 c -3.05433,18.79712 -0.49097,38.35841 7.23471,55.84343 l -317.877713,-0.012 0,0 z"
   stroke-miterlimit="2.6131" /><path
   style="clip-rule:evenodd;fill:#e03a3e;fill-rule:evenodd;stroke:#e03a3e;stroke-width:2.36865973;stroke-miterlimit:2.61310005"
   inkscape:connector-curvature="0"
   id="path13"
   d="M 69.15321,328.04798 C 61.779121,309.29381 56.730025,290.45773 53.891887,272.22841 l 317.877713,0.012 c 9.84083,22.28011 28.05274,41.20842 53.69654,50.93541 -0.76179,1.70094 -1.49667,3.32793 -2.20383,4.89608 l -354.1091,-0.0238 0,0 z"
   stroke-miterlimit="2.6131" /><path
   style="clip-rule:evenodd;fill:#963d97;fill-rule:evenodd;stroke:#963d97;stroke-width:2.36865973;stroke-miterlimit:2.61310005"
   inkscape:connector-curvature="0"
   id="path15"
   d="m 423.26153,328.07104 c -8.80425,19.43724 -13.90799,29.52525 -26.09201,48.1474 -1.63922,2.50094 -3.33309,5.05911 -5.09662,7.64115 l -293.416999,0.0271 c -0.939975,-1.40594 -1.871238,-2.81106 -2.788247,-4.20506 C 84.897586,362.90351 76.016529,345.50835 69.15321,328.04718 l 354.10832,0.0238 0,0 z"
   stroke-miterlimit="2.6131" /><path
   style="clip-rule:evenodd;fill:#009ddc;fill-rule:evenodd;stroke:#009ddc;stroke-width:2.36865973;stroke-miterlimit:2.61310005"
   inkscape:connector-curvature="0"
   id="path19"
   d="m 392.0729,383.85959 c -17.94901,26.40327 -42.04625,55.45855 -71.28603,55.73448 -28.53183,0.26003 -35.85129,-18.64523 -74.5605,-18.43211 -38.70921,0.21709 -46.79047,18.76212 -75.32229,18.49414 -30.50444,-0.28309 -54.19149,-28.81832 -72.248179,-55.76947 l 293.416999,-0.0271 0,0 z"
   stroke-miterlimit="2.6131" />
</svg>